<svg width="33" height="32" viewBox="0 0 33 32" fill="none" xmlns="http://www.w3.org/2000/svg">
<rect x="1" width="32" height="32" rx="5" fill="#1B1B24"/>
<path d="M24.6667 23.08C25.6111 22.8616 26.4588 22.342 27.0819 21.5995C27.7051 20.857 28.0697 19.932 28.1209 18.964C28.1721 17.996 27.907 17.0377 27.3657 16.2336C26.8243 15.4295 26.0361 14.8234 25.12 14.5067C24.3189 14.2511 23.4656 14.2052 22.6416 14.3732C21.8176 14.5413 21.24 14.7556 20.4134 15.4667C19.1074 16.59 18.7161 17.8014 17.52 19.24C15.35 21.85 11.7867 24.2133 8.41336 22.4533C7.59801 22.0368 6.91585 21.3999 6.44445 20.6151C5.97304 19.8302 5.7313 18.9288 5.74669 18.0133C5.74667 17.3306 5.8818 16.6546 6.14428 16.0243C6.40676 15.394 6.79141 14.8219 7.27604 14.341C7.76068 13.8601 8.33571 13.4799 8.96799 13.2222C9.60027 12.9646 10.2773 12.8347 10.96 12.84H11.6667C11.9631 11.8942 12.4985 11.0409 13.2211 10.3626C13.9438 9.68428 14.8292 9.20391 15.7918 8.96795C16.7545 8.73198 17.7617 8.7484 18.7161 9.01562C19.6705 9.28284 20.5399 9.79181 21.24 10.4933C21.5675 10.8171 21.8541 11.1798 22.0934 11.5733" stroke="white" stroke-width="2" stroke-linecap="round" stroke-linejoin="round"/>
</svg>
